# Blender v2.70 (sub 0) OBJ File: ''
# www.blender.org
o Cube
v 0.976727 0.979406 -0.007762
v 0.976727 -1.020594 -0.007762
v -1.023273 -1.020594 -0.007762
v -1.023273 0.979406 -0.007762
v 0.976727 0.979405 6.530573
v 0.976726 -1.020595 6.530573
v -1.023273 -1.020594 6.530573
v -1.023273 0.979406 6.530573
v 0.643194 0.539903 7.593077
v 0.643194 -0.627763 7.593077
v -0.622541 -0.627763 7.593077
v -0.622541 0.539903 7.593077
v 0.643194 0.539903 6.425409
v 0.643194 -0.627763 6.425409
v -0.622541 -0.627763 6.425409
v -0.622541 0.539903 6.425409
v 0.607811 -0.218705 6.514043
v 0.607811 0.127460 6.514043
v 0.953976 0.127460 6.514043
v 0.953976 -0.218705 6.514043
v 0.607811 -0.218705 6.860208
v 0.607811 0.127460 6.860208
v 0.953976 0.127460 6.860208
v 0.953976 -0.218705 6.860208
v -0.141396 -0.999004 6.497899
v -0.141396 -0.652840 6.497899
v 0.204769 -0.652840 6.497899
v 0.204769 -0.999004 6.497899
v -0.141396 -0.999004 6.844063
v -0.141396 -0.652840 6.844063
v 0.204769 -0.652840 6.844063
v 0.204769 -0.999004 6.844063
v -0.983730 -0.283362 6.490980
v -0.983730 0.062802 6.490980
v -0.637565 0.062802 6.490980
v -0.637565 -0.283362 6.490980
v -0.983730 -0.283362 6.837144
v -0.983730 0.062802 6.837144
v -0.637565 0.062802 6.837144
v -0.637565 -0.283362 6.837144
v -0.160831 0.646870 6.533490
v -0.160831 0.993034 6.533490
v 0.185334 0.993034 6.533490
v 0.185334 0.646870 6.533490
v -0.160831 0.646870 6.879655
v -0.160831 0.993034 6.879655
v 0.185334 0.993034 6.879655
v 0.185334 0.646870 6.879655
vt 0.479262 0.941402
vt 0.239631 0.941402
vt 0.239631 0.720890
vt 0.718893 0.941402
vt 0.479262 0.720890
vt 0.000000 0.720890
vt 0.000000 0.000000
vt 0.239631 0.000000
vt 0.958524 0.000000
vt 0.958524 0.720890
vt 0.718893 0.720890
vt 0.718893 0.000000
vt 0.858798 0.860445
vt 0.858798 0.989188
vt 0.718893 0.989188
vt 0.239631 0.860445
vt 0.099727 0.860445
vt 0.099727 0.720890
vt 0.099727 0.989188
vt 0.718893 0.860445
vt 0.998702 0.860445
vt 0.998702 1.000000
vt 0.858798 1.000000
vt 0.858798 0.720890
vt 0.998702 0.720890
vt 0.058251 0.835391
vt 0.099727 0.835391
vt 0.099727 0.873557
vt 0.041476 0.797224
vt 0.041476 0.835391
vt 0.000000 0.835391
vt 1.000000 0.038167
vt 0.958524 0.038167
vt 1.000000 0.076333
vt 0.958524 0.076333
vt 0.958524 0.491890
vt 0.958524 0.453724
vt 1.000000 0.453724
vt 1.000000 0.190834
vt 1.000000 0.229000
vt 0.958524 0.229000
vt 0.958524 0.682724
vt 1.000000 0.682724
vt 0.099727 0.797224
vt 0.000000 0.759057
vt 0.041476 0.720890
vt 0.099727 0.759057
vt 0.058251 0.797224
vt 0.958524 0.568224
vt 0.958524 0.530057
vt 1.000000 0.530057
vt 1.000000 0.568224
vt 1.000000 0.606390
vt 0.958524 0.606390
vt 0.000000 0.873557
vt 0.041476 0.759057
vt 0.000000 0.797224
vt 0.058251 0.911724
vt 0.058251 0.873557
vt 1.000000 0.644557
vt 1.000000 0.491890
vt 1.000000 0.114500
vt 0.958524 0.114500
vt 0.000000 0.911724
vt 0.041476 0.873557
vt 0.958524 0.644557
vt 1.000000 0.267167
vt 0.058251 0.759057
vt 1.000000 0.152667
vt 0.958524 0.190834
vt 0.958524 0.152667
vt 0.479262 0.000000
vt 0.239631 0.989188
vt 1.000000 0.000000
vt 1.000000 0.720890
vt 0.099727 0.911724
vt 0.041476 0.911724
vt 0.958524 0.267167
vt 0.058251 0.720890
vn 0.000000 0.000000 -1.000000
vn -0.000000 0.000000 1.000000
vn 1.000000 -0.000001 -0.000000
vn -0.000000 -1.000000 -0.000000
vn -1.000000 0.000000 -0.000000
vn 0.000000 1.000000 0.000000
vn 1.000000 0.000000 0.000000
s off
f 2/1/1 3/2/1 4/3/1
f 8/4/2 7/1/2 6/5/2
f 1/6/3 5/7/3 6/8/3
f 2/9/4 6/10/4 7/11/4
f 3/12/5 7/11/5 8/5/5
f 1/5/6 4/3/6 8/8/6
f 14/13/5 10/14/5 9/15/5
f 15/16/6 11/17/6 10/18/6
f 16/19/7 12/17/7 11/16/7
f 13/13/4 9/20/4 12/11/4
f 10/21/1 11/22/1 12/23/1
f 15/13/2 14/24/2 13/25/2
f 21/26/5 22/27/5 18/28/5
f 23/29/6 19/30/6 18/31/6
f 23/32/7 24/33/7 20/9/7
f 21/32/4 17/34/4 20/35/4
f 18/36/1 19/37/1 20/38/1
f 23/39/2 22/40/2 21/41/2
f 30/10/5 26/42/5 25/43/5
f 31/44/6 27/27/6 26/26/6
f 32/45/7 28/6/7 27/46/7
f 29/47/4 25/44/4 28/48/4
f 26/49/1 27/50/1 28/51/1
f 31/52/2 30/53/2 29/54/2
f 38/55/5 34/31/5 33/30/5
f 39/56/6 35/29/6 34/57/6
f 40/58/7 36/59/7 35/28/7
f 37/60/4 33/43/4 36/42/4
f 34/36/1 35/61/1 36/51/1
f 39/62/2 38/63/2 37/35/2
f 46/64/5 42/55/5 41/65/5
f 47/60/6 43/66/6 42/54/6
f 48/41/7 44/40/7 43/67/7
f 45/18/4 41/47/4 44/68/4
f 42/69/1 43/39/1 44/70/1
f 47/71/2 46/63/2 45/62/2
f 1/5/1 2/1/1 4/3/1
f 5/11/2 8/4/2 6/5/2
f 2/3/7 1/6/7 6/8/7
f 3/12/4 2/9/4 7/11/4
f 4/72/5 3/12/5 8/5/5
f 5/72/6 1/5/6 8/8/6
f 13/20/5 14/13/5 9/15/5
f 14/3/6 15/16/6 10/18/6
f 15/73/7 16/19/7 11/16/7
f 16/24/4 13/13/4 12/11/4
f 9/13/1 10/21/1 12/23/1
f 16/21/2 15/13/2 13/25/2
f 17/59/5 21/26/5 18/28/5
f 22/57/6 23/29/6 18/31/6
f 19/74/7 23/32/7 20/9/7
f 24/33/4 21/32/4 20/35/4
f 17/61/1 18/36/1 20/38/1
f 24/70/2 23/39/2 21/41/2
f 29/75/5 30/10/5 25/43/5
f 30/48/6 31/44/6 26/26/6
f 31/56/7 32/45/7 27/46/7
f 32/68/4 29/47/4 28/48/4
f 25/52/1 26/49/1 28/51/1
f 32/49/2 31/52/2 29/54/2
f 37/65/5 38/55/5 33/30/5
f 38/45/6 39/56/6 34/57/6
f 39/76/7 40/58/7 35/28/7
f 40/66/4 37/60/4 36/42/4
f 33/50/1 34/36/1 36/51/1
f 40/34/2 39/62/2 37/35/2
f 45/77/5 46/64/5 41/65/5
f 46/53/6 47/60/6 42/54/6
f 47/78/7 48/41/7 43/67/7
f 48/79/4 45/18/4 44/68/4
f 41/71/1 42/69/1 44/70/1
f 48/69/2 47/71/2 45/62/2
